<svg xmlns="http://www.w3.org/2000/svg" viewBox="0 0 1080 1920" width="1440" height="2560" role="img" aria-labelledby="title desc">
  <title id="title">Gorres Scrollytelling</title>
  <desc id="desc">Scroll-driven stories, built from blocks. Media stay in place while your text scrolls across them. Scroll and follow the story!</desc>
  <style>
    /* Two scenes take turns: a text box scrolls up across the stage, then the
       medium behind it changes and the next box starts at the bottom. */
    .box { animation: 6s linear infinite; }
    .box-a { animation-name: box-a; }
    .box-b { animation-name: box-b; }
    .scene { animation: 6s linear infinite; }
    .scene-a { animation-name: scene-a; }
    .scene-b { opacity: 0; animation-name: scene-b; }
    @keyframes box-a {
      0%      { transform: translateY(190px); }
      41.67%  { transform: translateY(-170px); }
      41.68%, 100% { transform: translateY(190px); }
    }
    @keyframes box-b {
      0%, 50% { transform: translateY(190px); }
      91.67%  { transform: translateY(-170px); }
      91.68%, 100% { transform: translateY(190px); }
    }
    @keyframes scene-a {
      0%, 41.67% { opacity: 1; }
      48.33%, 91.67% { opacity: 0; }
      98.33%, 100% { opacity: 1; }
    }
    @keyframes scene-b {
      0%, 41.67% { opacity: 0; }
      48.33%, 91.67% { opacity: 1; }
      98.33%, 100% { opacity: 0; }
    }
    /* Scroll hint: the arrow sits on a turning mouse wheel. It comes into view
       at the top, rolls over the front and leaves at the bottom (y = r * sin,
       height = cos of the wheel angle). Four turns per 6s scene loop. */
    .wheel-arrow { animation: wheel-arrow 1.5s linear infinite; }
    @keyframes wheel-arrow {
      0%      { transform: translateY(-75.0px) scaleY(0.001); opacity: 0.00; }
      8.33%   { transform: translateY(-72.4px) scaleY(0.259); opacity: 0.41; }
      16.67%  { transform: translateY(-65.0px) scaleY(0.500); opacity: 0.80; }
      25%     { transform: translateY(-53.0px) scaleY(0.707); opacity: 1.00; }
      33.33%  { transform: translateY(-37.5px) scaleY(0.866); opacity: 1.00; }
      41.67%  { transform: translateY(-19.4px) scaleY(0.966); opacity: 1.00; }
      50%     { transform: translateY(0.0px) scaleY(1.000); opacity: 1.00; }
      58.33%  { transform: translateY(19.4px) scaleY(0.966); opacity: 1.00; }
      66.67%  { transform: translateY(37.5px) scaleY(0.866); opacity: 1.00; }
      75%     { transform: translateY(53.0px) scaleY(0.707); opacity: 1.00; }
      83.33%  { transform: translateY(65.0px) scaleY(0.500); opacity: 0.80; }
      91.67%  { transform: translateY(72.4px) scaleY(0.259); opacity: 0.41; }
      100%    { transform: translateY(75.0px) scaleY(0.001); opacity: 0.00; }
    }
    @media (prefers-reduced-motion: reduce) {
      .box, .scene, .wheel-arrow { animation: none; }
    }
  </style>
  <defs>
    <linearGradient id="bg" x1="0" y1="0" x2="1" y2="1">
      <stop offset="0" stop-color="#1e293b"/>
      <stop offset="1" stop-color="#0f172a"/>
    </linearGradient>
    <linearGradient id="day" x1="0" y1="0" x2="0" y2="1">
      <stop offset="0" stop-color="#38bdf8"/>
      <stop offset="1" stop-color="#14b8a6"/>
    </linearGradient>
    <linearGradient id="dusk" x1="0" y1="0" x2="0" y2="1">
      <stop offset="0" stop-color="#fb923c"/>
      <stop offset="1" stop-color="#6d28d9"/>
    </linearGradient>
    <clipPath id="wheel"><rect x="-38" y="-75" width="76" height="150" rx="38"/></clipPath>
    <clipPath id="stage"><rect x="32" y="40" width="192" height="176" rx="18"/></clipPath>
  </defs>
  <rect width="1080" height="1920" fill="url(#bg)"/>
  <!-- Portrait layout of banner-animated.svg: the same parts, stacked and centred.
       Everything stays inside the middle 780 x 1230 units, so screens between
       3:4 and 9:21 that crop the image to fill still show all of it. -->
  <!-- Stage: same drawing and coordinates as icon.svg, scaled to the banner. -->
  <g transform="translate(68.5 257) scale(1.4)"><g transform="translate(74.4 -12) scale(2.05)">
    <g clip-path="url(#stage)">
      <g class="scene scene-b">
        <rect x="32" y="40" width="192" height="176" fill="url(#dusk)"/>
        <circle cx="84" cy="88" r="18" fill="#fef9c3" opacity="0.95"/>
        <path d="M32 216 L32 150 L100 104 L150 150 L190 122 L224 156 L224 216 Z" fill="#4c1d95"/>
        <path d="M32 216 L32 196 L80 168 L130 204 L180 176 L224 216 Z" fill="#2e1065"/>
        <g class="box box-b">
          <rect x="52" y="140" width="112" height="60" rx="10" fill="#ffffff" opacity="0.96"/>
          <rect x="66" y="156" width="56" height="8" rx="4" fill="#334155"/>
          <rect x="66" y="172" width="84" height="6" rx="3" fill="#94a3b8"/>
          <rect x="66" y="184" width="66" height="6" rx="3" fill="#94a3b8"/>
        </g>
      </g>
      <g class="scene scene-a">
        <rect x="32" y="40" width="192" height="176" fill="url(#day)"/>
        <circle cx="176" cy="96" r="22" fill="#fef3c7" opacity="0.95"/>
        <path d="M32 216 L32 168 L84 118 L122 156 L154 130 L224 190 L224 216 Z" fill="#0f766e"/>
        <path d="M32 216 L32 190 L70 160 L110 196 L150 170 L224 216 Z" fill="#115e59"/>
        <g class="box box-a">
          <rect x="52" y="140" width="112" height="60" rx="10" fill="#ffffff" opacity="0.96"/>
          <rect x="66" y="156" width="70" height="8" rx="4" fill="#334155"/>
          <rect x="66" y="172" width="84" height="6" rx="3" fill="#94a3b8"/>
          <rect x="66" y="184" width="52" height="6" rx="3" fill="#94a3b8"/>
        </g>
      </g>
    </g>
  </g></g>
  <!-- Text converted to paths (Noto Sans Bold / Regular) for identical rendering everywhere. -->
  <g transform="translate(540 790) scale(1.12)">
    <path fill="#38bdf8" d="M-70.7 128.3H-55.4V148.3Q-58.4 149.4 -61.7 149.9Q-64.9 150.5 -69.1 150.5Q-77.7 150.5 -82.4 145.5Q-87 140.4 -87 130.7Q-87 124.6 -84.7 120.2Q-82.3 115.8 -77.8 113.3Q-73.4 110.9 -66.9 110.9Q-63.8 110.9 -60.8 111.6Q-57.9 112.2 -55.4 113.3L-58.1 119.8Q-59.9 118.9 -62.2 118.3Q-64.4 117.7 -66.9 117.7Q-70.5 117.7 -73.1 119.3Q-75.7 120.9 -77.2 123.9Q-78.6 126.8 -78.6 130.8Q-78.6 134.6 -77.6 137.5Q-76.5 140.4 -74.3 142.1Q-72.1 143.7 -68.6 143.7Q-66.8 143.7 -65.6 143.6Q-64.4 143.4 -63.4 143.2V135.2H-70.7ZM-20.1 135.2Q-20.1 142.5 -23.9 146.5Q-27.8 150.5 -34.4 150.5Q-38.5 150.5 -41.7 148.8Q-45 147 -46.8 143.5Q-48.6 140.1 -48.6 135.2Q-48.6 127.9 -44.8 123.9Q-41 120 -34.3 120Q-30.1 120 -26.9 121.8Q-23.7 123.5 -21.9 126.9Q-20.1 130.3 -20.1 135.2ZM-40.4 135.2Q-40.4 139.6 -39 141.8Q-37.6 144.1 -34.3 144.1Q-31.1 144.1 -29.7 141.8Q-28.3 139.6 -28.3 135.2Q-28.3 130.8 -29.7 128.6Q-31.1 126.5 -34.4 126.5Q-37.6 126.5 -39 128.6Q-40.4 130.8 -40.4 135.2ZM3.1 120Q3.6 120 4.5 120Q5.3 120.1 5.8 120.2L5.2 127.8Q4.8 127.6 4 127.6Q3.3 127.5 2.8 127.5Q0.7 127.5 -1.2 128.2Q-3.1 128.9 -4.2 130.6Q-5.4 132.2 -5.4 135V150H-13.4V120.5H-7.3L-6.1 125.5H-5.8Q-4.5 123.2 -2.2 121.6Q0.1 120 3.1 120ZM27.6 120Q28.2 120 29 120Q29.8 120.1 30.3 120.2L29.7 127.8Q29.3 127.6 28.6 127.6Q27.8 127.5 27.3 127.5Q25.2 127.5 23.4 128.2Q21.5 128.9 20.3 130.6Q19.1 132.2 19.1 135V150H11.1V120.5H17.2L18.4 125.5H18.8Q20.1 123.2 22.3 121.6Q24.6 120 27.6 120ZM47.8 120Q53.9 120 57.4 123.5Q61 126.9 61 133.4V137.3H42Q42.1 140.7 44 142.6Q45.9 144.5 49.3 144.5Q52.2 144.5 54.5 144Q56.8 143.4 59.3 142.2V148.4Q57.2 149.5 54.8 150Q52.4 150.5 49 150.5Q44.5 150.5 41.1 148.9Q37.7 147.2 35.8 143.9Q33.8 140.6 33.8 135.5Q33.8 130.3 35.6 126.9Q37.3 123.4 40.5 121.7Q43.6 120 47.8 120ZM47.8 125.7Q45.5 125.7 44 127.2Q42.4 128.7 42.1 131.9H53.4Q53.4 129.2 52 127.5Q50.7 125.7 47.8 125.7ZM88.1 141.3Q88.1 145.7 84.9 148.1Q81.8 150.5 75.5 150.5Q72.4 150.5 70.2 150.1Q68 149.7 65.8 148.8V142.2Q68.2 143.2 70.9 144Q73.7 144.7 75.8 144.7Q78.2 144.7 79.2 144Q80.2 143.2 80.2 142.1Q80.2 141.4 79.8 140.8Q79.4 140.2 78 139.4Q76.7 138.7 73.8 137.5Q71 136.3 69.3 135.1Q67.5 134 66.6 132.3Q65.7 130.7 65.7 128.2Q65.7 124.1 68.9 122Q72.1 120 77.4 120Q80.2 120 82.6 120.5Q85.1 121.1 87.8 122.3L85.3 128.1Q83.2 127.2 81.2 126.5Q79.3 125.9 77.3 125.9Q73.7 125.9 73.7 127.9Q73.7 128.6 74.2 129.1Q74.7 129.7 76 130.3Q77.3 131 79.9 132.1Q82.4 133.1 84.3 134.2Q86.1 135.3 87.1 137Q88.1 138.6 88.1 141.3Z"/>
    <path fill="#ffffff" d="M-287.3 229.4Q-287.3 239.3 -294.4 245.2Q-301.5 251 -314.7 251Q-326.4 251 -335.7 246.6V231.9Q-330.4 234.2 -324.7 236.1Q-319 238 -313.4 238Q-307.6 238 -305.1 235.8Q-302.7 233.6 -302.7 230.1Q-302.7 227.3 -304.6 225.4Q-306.5 223.4 -309.8 221.7Q-313 219.9 -317.1 218Q-319.7 216.7 -322.8 215Q-325.8 213.3 -328.5 210.7Q-331.3 208.2 -333.1 204.6Q-334.8 200.9 -334.8 195.8Q-334.8 185.8 -328.1 180.3Q-321.3 174.7 -309.7 174.7Q-303.8 174.7 -298.6 176.1Q-293.3 177.4 -287.6 179.9L-292.7 192.2Q-297.8 190.1 -301.9 189Q-305.9 187.8 -310.2 187.8Q-314.7 187.8 -317 189.9Q-319.4 192 -319.4 195.3Q-319.4 199.2 -315.9 201.5Q-312.4 203.8 -305.4 207.2Q-299.7 209.9 -295.7 212.8Q-291.7 215.7 -289.5 219.6Q-287.3 223.6 -287.3 229.4ZM-251.9 251Q-264.6 251 -271.5 244Q-278.5 237 -278.5 221.9Q-278.5 211.5 -274.9 205Q-271.4 198.4 -265.1 195.3Q-258.8 192.2 -250.6 192.2Q-244.8 192.2 -240.4 193.3Q-236.1 194.5 -232.9 196L-237.5 208Q-241.1 206.5 -244.3 205.6Q-247.5 204.7 -250.6 204.7Q-262.7 204.7 -262.7 221.8Q-262.7 230.3 -259.5 234.4Q-256.3 238.5 -250.6 238.5Q-245.7 238.5 -242 237.2Q-238.2 235.9 -234.7 233.6V246.8Q-238.2 249.1 -242.1 250.1Q-246 251 -251.9 251ZM-189.9 192.2Q-188.7 192.2 -187.1 192.3Q-185.6 192.4 -184.7 192.6L-185.8 207.2Q-186.5 206.9 -187.9 206.8Q-189.3 206.6 -190.4 206.6Q-194.3 206.6 -198 208Q-201.6 209.4 -203.8 212.6Q-206.1 215.7 -206.1 221.1V250H-221.6V193.2H-209.8L-207.5 202.8H-206.8Q-204.3 198.4 -199.9 195.3Q-195.6 192.2 -189.9 192.2ZM-122.8 221.5Q-122.8 235.6 -130.2 243.3Q-137.6 251 -150.4 251Q-158.3 251 -164.5 247.6Q-170.7 244.2 -174.3 237.6Q-177.8 231 -177.8 221.5Q-177.8 207.4 -170.4 199.8Q-163 192.2 -150.1 192.2Q-142.1 192.2 -136 195.6Q-129.8 199 -126.3 205.5Q-122.8 212 -122.8 221.5ZM-162 221.5Q-162 229.9 -159.2 234.2Q-156.5 238.6 -150.2 238.6Q-144.1 238.6 -141.3 234.2Q-138.6 229.9 -138.6 221.5Q-138.6 213.1 -141.3 208.9Q-144.1 204.7 -150.3 204.7Q-156.5 204.7 -159.2 208.9Q-162 213.1 -162 221.5ZM-94.5 250H-110V171H-94.5ZM-62.8 250H-78.3V171H-62.8ZM-54.7 193.2H-37.7L-27 225.1Q-26.2 227.4 -25.7 229.9Q-25.3 232.3 -25.1 235H-24.8Q-24.5 232.3 -23.9 229.9Q-23.3 227.4 -22.6 225.1L-12.1 193.2H4.5L-19.5 257.3Q-22.7 266.1 -28.9 270.5Q-35.1 275 -43.2 275Q-45.8 275 -47.7 274.7Q-49.7 274.4 -51.1 274.1V261.9Q-50 262.1 -48.4 262.3Q-46.7 262.5 -45 262.5Q-40.1 262.5 -37.2 259.5Q-34.4 256.6 -33 252.4L-32.1 249.6ZM36.6 238.7Q39.2 238.7 41.5 238.1Q43.9 237.6 46.3 236.9V248.4Q43.8 249.5 40.1 250.3Q36.5 251 32.1 251Q27 251 23 249.4Q19 247.7 16.6 243.6Q14.3 239.5 14.3 232.2V204.9H6.9V198.3L15.4 193.1L19.9 181.2H29.8V193.2H45.7V204.9H29.8V232.2Q29.8 235.4 31.7 237.1Q33.5 238.7 36.6 238.7ZM81.2 192.2Q92.9 192.2 99.8 198.9Q106.7 205.6 106.7 218V225.5H70Q70.3 232 73.9 235.8Q77.6 239.5 84.2 239.5Q89.7 239.5 94.2 238.4Q98.6 237.3 103.4 235V247Q99.3 249.1 94.6 250.1Q90 251 83.5 251Q74.9 251 68.4 247.9Q61.8 244.7 58.1 238.2Q54.3 231.8 54.3 222Q54.3 212 57.7 205.4Q61.1 198.8 67.1 195.5Q73.2 192.2 81.2 192.2ZM81.3 203.2Q76.8 203.2 73.8 206.1Q70.9 209 70.4 215.2H92.1Q92 210 89.4 206.6Q86.8 203.2 81.3 203.2ZM134.7 250H119.2V171H134.7ZM166.5 250H151V171H166.5ZM190.5 171Q193.9 171 196.4 172.6Q198.9 174.2 198.9 178.6Q198.9 182.8 196.4 184.5Q193.9 186.1 190.5 186.1Q186.9 186.1 184.5 184.5Q182.1 182.8 182.1 178.6Q182.1 174.2 184.5 172.6Q186.9 171 190.5 171ZM198.2 193.2V250H182.7V193.2ZM246.6 192.2Q255.8 192.2 261.3 197.1Q266.8 202.1 266.8 213V250H251.3V216.8Q251.3 210.7 249.1 207.6Q246.9 204.6 242.2 204.6Q235.1 204.6 232.5 209.4Q229.9 214.2 229.9 223.3V250H214.4V193.2H226.3L228.3 200.5H229.2Q231.9 196.1 236.6 194.2Q241.3 192.2 246.6 192.2ZM301.1 192.2Q311.6 192.2 317.6 200.5H318L319.2 193.2H332.3V250.1Q332.3 262.3 325.2 268.6Q318 275 303.9 275Q297.9 275 292.8 274.2Q287.6 273.5 282.7 271.6V259.3Q293.2 263.6 304.9 263.6Q316.8 263.6 316.8 250.7V249.6Q316.8 247.8 317 245.9Q317.1 244.1 317.3 242.6H316.8Q313.9 247.1 309.9 249.1Q305.8 251 300.7 251Q290.6 251 285 243.3Q279.3 235.5 279.3 221.7Q279.3 207.8 285.1 200Q290.9 192.2 301.1 192.2ZM306 204.8Q295.1 204.8 295.1 221.9Q295.1 238.9 306.2 238.9Q312.2 238.9 315 235.5Q317.9 232.1 317.9 223.7V221.8Q317.9 212.7 315.1 208.7Q312.3 204.8 306 204.8Z"/>
  </g>
  <path transform="translate(-483 848)" fill="#cbd5e1" d="M684 307.4Q684 311.2 681.3 313.3Q678.5 315.4 673.8 315.4Q671.4 315.4 669.4 315Q667.4 314.7 666 314V310.6Q667.4 311.2 669.6 311.8Q671.7 312.3 674 312.3Q677.2 312.3 678.8 311Q680.4 309.8 680.4 307.7Q680.4 306.3 679.8 305.3Q679.2 304.4 677.8 303.5Q676.3 302.7 673.7 301.8Q670.1 300.5 668.2 298.6Q666.4 296.6 666.4 293.3Q666.4 291 667.5 289.4Q668.7 287.8 670.7 286.9Q672.8 286 675.5 286Q677.8 286 679.8 286.5Q681.8 286.9 683.4 287.6L682.2 290.7Q680.8 290.1 679 289.6Q677.3 289.2 675.4 289.2Q672.7 289.2 671.4 290.3Q670 291.5 670 293.4Q670 294.8 670.6 295.8Q671.2 296.7 672.6 297.5Q673.9 298.2 676.2 299.1Q678.8 300 680.5 301.1Q682.2 302.2 683.1 303.6Q684 305.1 684 307.4ZM697.9 315.4Q695.1 315.4 692.9 314.2Q690.6 313.1 689.4 310.6Q688.1 308.2 688.1 304.4Q688.1 300.4 689.4 298Q690.8 295.5 693 294.3Q695.3 293.2 698.2 293.2Q699.8 293.2 701.3 293.5Q702.8 293.8 703.8 294.3L702.7 297.2Q701.8 296.9 700.5 296.6Q699.2 296.2 698.1 296.2Q691.8 296.2 691.8 304.4Q691.8 308.2 693.3 310.3Q694.8 312.4 697.9 312.4Q699.6 312.4 701 312Q702.3 311.6 703.4 311.1V314.2Q702.4 314.8 701.1 315.1Q699.8 315.4 697.9 315.4ZM718.5 293.2Q719.1 293.2 719.8 293.2Q720.5 293.3 721 293.4L720.6 296.6Q720.1 296.5 719.5 296.4Q718.8 296.4 718.3 296.4Q716.6 296.4 715.2 297.3Q713.8 298.2 712.9 299.8Q712 301.4 712 303.6V315H708.5V293.6H711.4L711.8 297.5H712Q713 295.7 714.6 294.4Q716.3 293.2 718.5 293.2ZM743.7 304.2Q743.7 309.6 741 312.5Q738.3 315.4 733.7 315.4Q730.8 315.4 728.6 314.1Q726.4 312.8 725.1 310.3Q723.8 307.8 723.8 304.2Q723.8 298.9 726.5 296Q729.2 293.2 733.8 293.2Q736.7 293.2 738.9 294.5Q741.2 295.8 742.4 298.2Q743.7 300.7 743.7 304.2ZM727.5 304.2Q727.5 308 729 310.3Q730.5 312.5 733.8 312.5Q737 312.5 738.5 310.3Q740 308 740 304.2Q740 300.4 738.5 298.3Q737 296.1 733.7 296.1Q730.4 296.1 729 298.3Q727.5 300.4 727.5 304.2ZM752.8 315H749.2V284.6H752.8ZM763.1 315H759.6V284.6H763.1ZM768.1 305.8V302.7H777.8V305.8ZM790.4 315.4Q786.4 315.4 784 312.6Q781.6 309.8 781.6 304.3Q781.6 298.8 784 296Q786.4 293.2 790.4 293.2Q792.9 293.2 794.5 294.1Q796 295 797 296.3H797.3Q797.2 295.8 797.1 294.8Q797 293.8 797 293.2V284.6H800.6V315H797.7L797.2 312.1H797Q796.1 313.5 794.5 314.4Q792.9 315.4 790.4 315.4ZM790.9 312.5Q794.3 312.5 795.7 310.6Q797.1 308.8 797.1 305V304.4Q797.1 300.4 795.8 298.2Q794.4 296.1 790.9 296.1Q788 296.1 786.6 298.3Q785.2 300.6 785.2 304.4Q785.2 308.2 786.6 310.4Q788 312.5 790.9 312.5ZM817.4 293.2Q818 293.2 818.7 293.2Q819.4 293.3 819.9 293.4L819.4 296.6Q818.9 296.5 818.3 296.4Q817.7 296.4 817.1 296.4Q815.5 296.4 814 297.3Q812.6 298.2 811.7 299.8Q810.9 301.4 810.9 303.6V315H807.4V293.6H810.2L810.6 297.5H810.8Q811.8 295.7 813.5 294.4Q815.1 293.2 817.4 293.2ZM825.7 285.5Q826.5 285.5 827.1 286.1Q827.7 286.6 827.7 287.8Q827.7 288.9 827.1 289.4Q826.5 290 825.7 290Q824.8 290 824.2 289.4Q823.6 288.9 823.6 287.8Q823.6 286.6 824.2 286.1Q824.8 285.5 825.7 285.5ZM827.4 293.6V315H823.9V293.6ZM838.9 315 830.8 293.6H834.6L839.1 306.2Q839.4 307.1 839.8 308.2Q840.2 309.2 840.4 310.2Q840.7 311.2 840.8 311.9H841Q841.2 311.2 841.5 310.2Q841.8 309.2 842.1 308.1Q842.5 307 842.8 306.2L847.3 293.6H851.1L843 315ZM862.8 293.2Q865.5 293.2 867.5 294.4Q869.5 295.6 870.6 297.7Q871.6 299.9 871.6 302.8V305H856.9Q857 308.6 858.8 310.5Q860.6 312.4 863.8 312.4Q865.8 312.4 867.4 312Q869 311.6 870.7 310.9V314Q869 314.7 867.4 315.1Q865.8 315.4 863.6 315.4Q860.6 315.4 858.2 314.2Q855.9 312.9 854.6 310.5Q853.3 308 853.3 304.4Q853.3 300.9 854.5 298.4Q855.7 295.9 857.8 294.5Q859.9 293.2 862.8 293.2ZM862.7 296Q860.2 296 858.8 297.7Q857.3 299.3 857 302.2H867.9Q867.9 299.4 866.7 297.7Q865.4 296 862.7 296ZM887.4 293.2Q891.2 293.2 893.2 295Q895.1 296.9 895.1 301V315H891.7V301.3Q891.7 296.1 886.9 296.1Q883.3 296.1 881.9 298.1Q880.6 300.1 880.6 303.9V315H877.1V293.6H879.9L880.4 296.5H880.6Q881.7 294.8 883.5 294Q885.3 293.2 887.4 293.2ZM926.1 309.1Q926.1 312.2 923.8 313.8Q921.5 315.4 917.6 315.4Q915.3 315.4 913.7 315Q912.1 314.7 910.9 314V310.8Q912.1 311.5 914 312Q915.8 312.6 917.7 312.6Q920.3 312.6 921.5 311.7Q922.7 310.8 922.7 309.4Q922.7 308.6 922.3 308Q921.9 307.3 920.7 306.7Q919.6 306 917.5 305.2Q915.4 304.4 913.9 303.6Q912.4 302.8 911.6 301.7Q910.8 300.6 910.8 298.8Q910.8 296.1 913 294.6Q915.3 293.2 918.9 293.2Q920.8 293.2 922.5 293.5Q924.2 293.9 925.7 294.6L924.5 297.4Q923.1 296.8 921.7 296.4Q920.2 296 918.6 296Q916.5 296 915.3 296.7Q914.2 297.4 914.2 298.6Q914.2 299.5 914.7 300.1Q915.2 300.8 916.4 301.3Q917.7 301.9 919.7 302.7Q921.7 303.5 923.2 304.3Q924.6 305.1 925.4 306.2Q926.1 307.4 926.1 309.1ZM938.5 312.5Q939.3 312.5 940.1 312.4Q941 312.2 941.5 312.1V314.8Q940.9 315 939.9 315.2Q938.9 315.4 937.9 315.4Q936.2 315.4 934.8 314.8Q933.4 314.2 932.5 312.8Q931.6 311.4 931.6 308.8V296.3H928.6V294.6L931.7 293.2L933.1 288.6H935.1V293.6H941.3V296.3H935.1V308.7Q935.1 310.6 936.1 311.6Q937 312.5 938.5 312.5ZM964.4 304.2Q964.4 309.6 961.7 312.5Q959 315.4 954.4 315.4Q951.6 315.4 949.4 314.1Q947.1 312.8 945.9 310.3Q944.6 307.8 944.6 304.2Q944.6 298.9 947.3 296Q949.9 293.2 954.5 293.2Q957.5 293.2 959.7 294.5Q961.9 295.8 963.2 298.2Q964.4 300.7 964.4 304.2ZM948.2 304.2Q948.2 308 949.7 310.3Q951.2 312.5 954.5 312.5Q957.7 312.5 959.3 310.3Q960.8 308 960.8 304.2Q960.8 300.4 959.3 298.3Q957.7 296.1 954.5 296.1Q951.2 296.1 949.7 298.3Q948.2 300.4 948.2 304.2ZM980 293.2Q980.6 293.2 981.3 293.2Q982 293.3 982.5 293.4L982.1 296.6Q981.5 296.5 980.9 296.4Q980.3 296.4 979.7 296.4Q978.1 296.4 976.7 297.3Q975.2 298.2 974.4 299.8Q973.5 301.4 973.5 303.6V315H970V293.6H972.9L973.3 297.5H973.4Q974.5 295.7 976.1 294.4Q977.7 293.2 980 293.2ZM988.3 285.5Q989.1 285.5 989.7 286.1Q990.3 286.6 990.3 287.8Q990.3 288.9 989.7 289.4Q989.1 290 988.3 290Q987.4 290 986.8 289.4Q986.2 288.9 986.2 287.8Q986.2 286.6 986.8 286.1Q987.4 285.5 988.3 285.5ZM990 293.6V315H986.5V293.6ZM1005.1 293.2Q1007.9 293.2 1009.8 294.4Q1011.8 295.6 1012.9 297.7Q1013.9 299.9 1013.9 302.8V305H999.3Q999.3 308.6 1001.1 310.5Q1002.9 312.4 1006.1 312.4Q1008.1 312.4 1009.7 312Q1011.3 311.6 1013 310.9V314Q1011.3 314.7 1009.7 315.1Q1008.1 315.4 1005.9 315.4Q1002.9 315.4 1000.6 314.2Q998.2 312.9 996.9 310.5Q995.6 308 995.6 304.4Q995.6 300.9 996.8 298.4Q998 295.9 1000.1 294.5Q1002.3 293.2 1005.1 293.2ZM1005.1 296Q1002.5 296 1001.1 297.7Q999.6 299.3 999.3 302.2H1010.3Q1010.2 299.4 1009 297.7Q1007.7 296 1005.1 296ZM1033.3 309.1Q1033.3 312.2 1031 313.8Q1028.7 315.4 1024.8 315.4Q1022.5 315.4 1020.9 315Q1019.3 314.7 1018.1 314V310.8Q1019.3 311.5 1021.2 312Q1023 312.6 1024.9 312.6Q1027.5 312.6 1028.7 311.7Q1029.9 310.8 1029.9 309.4Q1029.9 308.6 1029.5 308Q1029.1 307.3 1027.9 306.7Q1026.8 306 1024.7 305.2Q1022.6 304.4 1021.1 303.6Q1019.6 302.8 1018.8 301.7Q1018 300.6 1018 298.8Q1018 296.1 1020.2 294.6Q1022.5 293.2 1026.1 293.2Q1028 293.2 1029.7 293.5Q1031.4 293.9 1032.9 294.6L1031.7 297.4Q1030.3 296.8 1028.9 296.4Q1027.4 296 1025.8 296Q1023.7 296 1022.5 296.7Q1021.4 297.4 1021.4 298.6Q1021.4 299.5 1021.9 300.1Q1022.4 300.8 1023.6 301.3Q1024.9 301.9 1026.9 302.7Q1028.9 303.5 1030.4 304.3Q1031.8 305.1 1032.6 306.2Q1033.3 307.4 1033.3 309.1ZM1042.8 310.8Q1042.3 312.9 1041.3 315.5Q1040.3 318 1039.4 320.2H1036.8Q1037.3 317.9 1037.9 315.2Q1038.5 312.4 1038.8 310.4H1042.5ZM1063.2 292Q1063.2 293.4 1063.1 294.5Q1063.1 295.7 1063 296.4H1063.2Q1064.1 295 1065.7 294.1Q1067.3 293.2 1069.8 293.2Q1073.8 293.2 1076.2 296Q1078.7 298.8 1078.7 304.3Q1078.7 309.8 1076.2 312.6Q1073.8 315.4 1069.8 315.4Q1067.3 315.4 1065.7 314.5Q1064.1 313.6 1063.2 312.3H1062.9L1062.2 315H1059.7V284.6H1063.2ZM1069.2 296.1Q1065.8 296.1 1064.5 298.1Q1063.2 300 1063.2 304.2V304.3Q1063.2 308.3 1064.5 310.4Q1065.8 312.5 1069.3 312.5Q1072.2 312.5 1073.6 310.4Q1075 308.2 1075 304.2Q1075 296.1 1069.2 296.1ZM1102.2 293.6V315H1099.3L1098.8 312.2H1098.6Q1097.6 313.8 1095.7 314.6Q1093.9 315.4 1091.8 315.4Q1087.9 315.4 1086 313.5Q1084 311.7 1084 307.6V293.6H1087.6V307.4Q1087.6 312.5 1092.3 312.5Q1095.9 312.5 1097.3 310.5Q1098.7 308.5 1098.7 304.7V293.6ZM1110.8 285.5Q1111.6 285.5 1112.2 286.1Q1112.8 286.6 1112.8 287.8Q1112.8 288.9 1112.2 289.4Q1111.6 290 1110.8 290Q1109.9 290 1109.3 289.4Q1108.7 288.9 1108.7 287.8Q1108.7 286.6 1109.3 286.1Q1109.9 285.5 1110.8 285.5ZM1112.5 293.6V315H1109V293.6ZM1122.8 315H1119.3V284.6H1122.8ZM1136.8 312.5Q1137.6 312.5 1138.4 312.4Q1139.3 312.2 1139.8 312.1V314.8Q1139.2 315 1138.2 315.2Q1137.1 315.4 1136.2 315.4Q1134.5 315.4 1133.1 314.8Q1131.7 314.2 1130.8 312.8Q1129.9 311.4 1129.9 308.8V296.3H1126.9V294.6L1129.9 293.2L1131.3 288.6H1133.4V293.6H1139.6V296.3H1133.4V308.7Q1133.4 310.6 1134.4 311.6Q1135.3 312.5 1136.8 312.5ZM1164.3 296.3H1158.9V315H1155.4V296.3H1151.7V294.6L1155.4 293.4V292.2Q1155.4 288 1157.3 286.2Q1159.1 284.4 1162.4 284.4Q1163.7 284.4 1164.7 284.6Q1165.8 284.8 1166.5 285.1L1165.6 287.9Q1165 287.7 1164.1 287.5Q1163.3 287.3 1162.4 287.3Q1160.7 287.3 1159.8 288.5Q1158.9 289.6 1158.9 292.2V293.6H1164.3ZM1178.2 293.2Q1178.8 293.2 1179.5 293.2Q1180.2 293.3 1180.7 293.4L1180.3 296.6Q1179.8 296.5 1179.2 296.4Q1178.5 296.4 1178 296.4Q1176.3 296.4 1174.9 297.3Q1173.5 298.2 1172.6 299.8Q1171.7 301.4 1171.7 303.6V315H1168.2V293.6H1171.1L1171.5 297.5H1171.7Q1172.7 295.7 1174.3 294.4Q1176 293.2 1178.2 293.2ZM1203.4 304.2Q1203.4 309.6 1200.7 312.5Q1198 315.4 1193.4 315.4Q1190.5 315.4 1188.3 314.1Q1186.1 312.8 1184.8 310.3Q1183.5 307.8 1183.5 304.2Q1183.5 298.9 1186.2 296Q1188.9 293.2 1193.5 293.2Q1196.4 293.2 1198.6 294.5Q1200.9 295.8 1202.1 298.2Q1203.4 300.7 1203.4 304.2ZM1187.2 304.2Q1187.2 308 1188.7 310.3Q1190.2 312.5 1193.5 312.5Q1196.7 312.5 1198.2 310.3Q1199.7 308 1199.7 304.2Q1199.7 300.4 1198.2 298.3Q1196.7 296.1 1193.4 296.1Q1190.1 296.1 1188.7 298.3Q1187.2 300.4 1187.2 304.2ZM1232.4 293.2Q1236.1 293.2 1237.9 295Q1239.7 296.9 1239.7 301V315H1236.2V301.2Q1236.2 296.1 1231.8 296.1Q1228.7 296.1 1227.4 297.9Q1226 299.7 1226 303.2V315H1222.6V301.2Q1222.6 296.1 1218.2 296.1Q1214.9 296.1 1213.7 298.1Q1212.4 300.1 1212.4 303.9V315H1208.9V293.6H1211.8L1212.3 296.5H1212.5Q1213.5 294.8 1215.2 294Q1216.9 293.2 1218.8 293.2Q1223.8 293.2 1225.4 296.8H1225.6Q1226.6 294.9 1228.5 294Q1230.4 293.2 1232.4 293.2ZM1260.2 292Q1260.2 293.4 1260.2 294.5Q1260.1 295.7 1260 296.4H1260.2Q1261.2 295 1262.8 294.1Q1264.4 293.2 1266.9 293.2Q1270.9 293.2 1273.3 296Q1275.7 298.8 1275.7 304.3Q1275.7 309.8 1273.3 312.6Q1270.8 315.4 1266.9 315.4Q1264.4 315.4 1262.8 314.5Q1261.2 313.6 1260.2 312.3H1260L1259.2 315H1256.7V284.6H1260.2ZM1266.3 296.1Q1262.9 296.1 1261.6 298.1Q1260.2 300 1260.2 304.2V304.3Q1260.2 308.3 1261.5 310.4Q1262.8 312.5 1266.4 312.5Q1269.2 312.5 1270.7 310.4Q1272.1 308.2 1272.1 304.2Q1272.1 296.1 1266.3 296.1ZM1284.8 315H1281.3V284.6H1284.8ZM1310.3 304.2Q1310.3 309.6 1307.6 312.5Q1304.9 315.4 1300.3 315.4Q1297.4 315.4 1295.2 314.1Q1293 312.8 1291.7 310.3Q1290.4 307.8 1290.4 304.2Q1290.4 298.9 1293.1 296Q1295.8 293.2 1300.4 293.2Q1303.3 293.2 1305.5 294.5Q1307.8 295.8 1309 298.2Q1310.3 300.7 1310.3 304.2ZM1294.1 304.2Q1294.1 308 1295.6 310.3Q1297.1 312.5 1300.4 312.5Q1303.6 312.5 1305.1 310.3Q1306.6 308 1306.6 304.2Q1306.6 300.4 1305.1 298.3Q1303.6 296.1 1300.3 296.1Q1297 296.1 1295.6 298.3Q1294.1 300.4 1294.1 304.2ZM1324.4 315.4Q1321.6 315.4 1319.4 314.2Q1317.2 313.1 1315.9 310.6Q1314.6 308.2 1314.6 304.4Q1314.6 300.4 1316 298Q1317.3 295.5 1319.5 294.3Q1321.8 293.2 1324.7 293.2Q1326.3 293.2 1327.8 293.5Q1329.4 293.8 1330.3 294.3L1329.2 297.2Q1328.3 296.9 1327 296.6Q1325.7 296.2 1324.6 296.2Q1318.3 296.2 1318.3 304.4Q1318.3 308.2 1319.8 310.3Q1321.4 312.4 1324.4 312.4Q1326.2 312.4 1327.5 312Q1328.8 311.6 1330 311.1V314.2Q1328.9 314.8 1327.6 315.1Q1326.3 315.4 1324.4 315.4ZM1338.5 300.5Q1338.5 301.1 1338.5 302.2Q1338.4 303.2 1338.4 304H1338.5Q1338.8 303.6 1339.2 303Q1339.7 302.4 1340.2 301.8Q1340.7 301.2 1341.1 300.8L1347.9 293.6H1352L1343.4 302.7L1352.6 315H1348.4L1341 305L1338.5 307.1V315H1335V284.6H1338.5ZM1370.4 309.1Q1370.4 312.2 1368 313.8Q1365.7 315.4 1361.8 315.4Q1359.6 315.4 1357.9 315Q1356.3 314.7 1355.1 314V310.8Q1356.4 311.5 1358.2 312Q1360 312.6 1361.9 312.6Q1364.6 312.6 1365.8 311.7Q1367 310.8 1367 309.4Q1367 308.6 1366.5 308Q1366.1 307.3 1364.9 306.7Q1363.8 306 1361.7 305.2Q1359.6 304.4 1358.1 303.6Q1356.6 302.8 1355.8 301.7Q1355 300.6 1355 298.8Q1355 296.1 1357.3 294.6Q1359.5 293.2 1363.1 293.2Q1365 293.2 1366.7 293.5Q1368.4 293.9 1369.9 294.6L1368.7 297.4Q1367.4 296.8 1365.9 296.4Q1364.4 296 1362.8 296Q1360.7 296 1359.5 296.7Q1358.4 297.4 1358.4 298.6Q1358.4 299.5 1358.9 300.1Q1359.4 300.8 1360.7 301.3Q1361.9 301.9 1363.9 302.7Q1366 303.5 1367.4 304.3Q1368.8 305.1 1369.6 306.2Q1370.4 307.4 1370.4 309.1ZM1375 312.8Q1375 311.4 1375.8 310.8Q1376.5 310.2 1377.5 310.2Q1378.5 310.2 1379.3 310.8Q1380 311.4 1380 312.8Q1380 314.3 1379.3 314.9Q1378.5 315.6 1377.5 315.6Q1376.5 315.6 1375.8 314.9Q1375 314.3 1375 312.8Z"/>
  <path transform="translate(-509 848)" fill="#94a3b8" d="M675.5 371 668.4 352.2H668.3Q668.4 353.1 668.4 354.7Q668.5 356.3 668.5 358V371H666V349.6H670L676.6 367.1H676.7L683.4 349.6H687.4V371H684.7V357.8Q684.7 356.3 684.8 354.7Q684.9 353.2 684.9 352.2H684.8L677.7 371ZM699.1 354.6Q701.1 354.6 702.6 355.5Q704.1 356.4 704.9 358Q705.7 359.7 705.7 361.9V363.5H694.7Q694.8 366.2 696.1 367.6Q697.4 369 699.8 369Q701.4 369 702.5 368.8Q703.7 368.5 705 367.9V370.2Q703.8 370.8 702.6 371Q701.4 371.3 699.7 371.3Q697.4 371.3 695.7 370.4Q693.9 369.4 692.9 367.6Q692 365.7 692 363.1Q692 360.4 692.8 358.5Q693.7 356.7 695.3 355.6Q696.9 354.6 699.1 354.6ZM699 356.8Q697.2 356.8 696.1 358Q695 359.2 694.8 361.4H702.9Q702.9 359.3 702 358Q701.1 356.8 699 356.8ZM715.5 371.3Q712.5 371.3 710.7 369.2Q708.9 367.1 708.9 363Q708.9 358.8 710.7 356.7Q712.5 354.6 715.5 354.6Q717.4 354.6 718.6 355.3Q719.8 356 720.5 357H720.7Q720.7 356.6 720.6 355.8Q720.5 355.1 720.5 354.6V348.2H723.1V371H721L720.6 368.8H720.5Q719.8 369.9 718.6 370.6Q717.4 371.3 715.5 371.3ZM715.9 369.1Q718.5 369.1 719.5 367.7Q720.5 366.3 720.5 363.5V363Q720.5 360 719.5 358.4Q718.6 356.8 715.9 356.8Q713.8 356.8 712.7 358.5Q711.6 360.2 711.6 363Q711.6 365.9 712.7 367.5Q713.8 369.1 715.9 369.1ZM729.6 348.9Q730.2 348.9 730.7 349.3Q731.1 349.7 731.1 350.6Q731.1 351.4 730.7 351.8Q730.2 352.2 729.6 352.2Q728.9 352.2 728.5 351.8Q728 351.4 728 350.6Q728 349.7 728.5 349.3Q728.9 348.9 729.6 348.9ZM730.9 354.9V371H728.3V354.9ZM742.1 354.6Q745 354.6 746.4 355.9Q747.8 357.2 747.8 360V371H745.9L745.4 368.7H745.3Q744.2 370 743.1 370.7Q741.9 371.3 739.9 371.3Q737.7 371.3 736.3 370.1Q734.8 369 734.8 366.5Q734.8 364.1 736.7 362.8Q738.6 361.5 742.5 361.4L745.3 361.3V360.3Q745.3 358.3 744.4 357.6Q743.5 356.8 741.9 356.8Q740.7 356.8 739.5 357.1Q738.4 357.5 737.4 358L736.6 356Q737.6 355.5 739.1 355Q740.5 354.6 742.1 354.6ZM742.9 363.2Q739.9 363.3 738.7 364.2Q737.6 365 737.6 366.6Q737.6 367.9 738.4 368.5Q739.2 369.2 740.5 369.2Q742.5 369.2 743.9 368Q745.2 366.9 745.2 364.6V363.1ZM771.1 366.6Q771.1 368.9 769.4 370.1Q767.6 371.3 764.7 371.3Q763 371.3 761.8 371Q760.6 370.8 759.6 370.3V367.9Q760.6 368.4 762 368.8Q763.3 369.2 764.7 369.2Q766.8 369.2 767.7 368.5Q768.6 367.9 768.6 366.8Q768.6 366.2 768.2 365.7Q767.9 365.2 767 364.8Q766.2 364.3 764.6 363.7Q763 363.1 761.9 362.5Q760.8 361.9 760.2 361Q759.6 360.2 759.6 358.9Q759.6 356.8 761.3 355.7Q762.9 354.6 765.6 354.6Q767.1 354.6 768.4 354.9Q769.7 355.2 770.8 355.7L769.9 357.8Q768.9 357.4 767.7 357.1Q766.6 356.8 765.5 356.8Q763.8 356.8 763 357.3Q762.1 357.8 762.1 358.7Q762.1 359.4 762.5 359.8Q762.9 360.3 763.8 360.8Q764.7 361.2 766.3 361.8Q767.8 362.4 768.9 363Q770 363.6 770.5 364.4Q771.1 365.3 771.1 366.6ZM780.4 369.1Q781 369.1 781.6 369Q782.2 368.9 782.6 368.8V370.8Q782.2 371 781.4 371.2Q780.7 371.3 779.9 371.3Q778.7 371.3 777.6 370.9Q776.5 370.4 775.9 369.3Q775.2 368.3 775.2 366.3V357H772.9V355.7L775.3 354.6L776.3 351.2H777.9V354.9H782.5V357H777.9V366.3Q777.9 367.7 778.6 368.4Q779.3 369.1 780.4 369.1ZM791.9 354.6Q794.9 354.6 796.3 355.9Q797.7 357.2 797.7 360V371H795.8L795.3 368.7H795.2Q794.1 370 792.9 370.7Q791.8 371.3 789.7 371.3Q787.6 371.3 786.1 370.1Q784.7 369 784.7 366.5Q784.7 364.1 786.6 362.8Q788.5 361.5 792.4 361.4L795.1 361.3V360.3Q795.1 358.3 794.3 357.6Q793.4 356.8 791.8 356.8Q790.5 356.8 789.4 357.1Q788.2 357.5 787.3 358L786.4 356Q787.5 355.5 788.9 355Q790.4 354.6 791.9 354.6ZM792.7 363.2Q789.7 363.3 788.6 364.2Q787.4 365 787.4 366.6Q787.4 367.9 788.2 368.5Q789.1 369.2 790.4 369.2Q792.4 369.2 793.7 368Q795.1 366.9 795.1 364.6V363.1ZM800.2 354.9H803L806.5 364.1Q806.9 365.3 807.3 366.4Q807.6 367.5 807.8 368.4H807.9Q808.1 367.7 808.5 366.5Q808.9 365.3 809.3 364L812.6 354.9H815.4L808.5 373.2Q807.7 375.5 806.3 376.9Q805 378.2 802.7 378.2Q801.9 378.2 801.4 378.1Q800.9 378.1 800.5 378V375.9Q800.8 375.9 801.3 376Q801.7 376 802.2 376Q803.6 376 804.5 375.3Q805.3 374.5 805.8 373.2L806.6 371.1ZM827.1 348.9Q827.7 348.9 828.2 349.3Q828.7 349.7 828.7 350.6Q828.7 351.4 828.2 351.8Q827.7 352.2 827.1 352.2Q826.5 352.2 826 351.8Q825.6 351.4 825.6 350.6Q825.6 349.7 826 349.3Q826.5 348.9 827.1 348.9ZM828.4 354.9V371H825.8V354.9ZM841.3 354.6Q844.2 354.6 845.6 356Q847.1 357.4 847.1 360.5V371H844.5V360.7Q844.5 356.8 840.9 356.8Q838.2 356.8 837.2 358.3Q836.2 359.8 836.2 362.7V371H833.5V354.9H835.7L836.1 357.1H836.2Q837 355.8 838.4 355.2Q839.8 354.6 841.3 354.6ZM867.5 354.6Q870.5 354.6 872.3 356.7Q874.2 358.8 874.2 362.9Q874.2 367 872.3 369.2Q870.5 371.3 867.5 371.3Q865.7 371.3 864.4 370.6Q863.2 369.9 862.5 369H862.4Q862.4 369.5 862.5 370.2Q862.5 371 862.5 371.6V378.2H859.9V354.9H862.1L862.4 357.1H862.5Q863.3 356.1 864.4 355.3Q865.6 354.6 867.5 354.6ZM867.1 356.8Q864.6 356.8 863.6 358.2Q862.6 359.6 862.5 362.4V362.9Q862.5 365.9 863.5 367.5Q864.5 369.1 867.1 369.1Q868.6 369.1 869.5 368.3Q870.5 367.5 871 366.1Q871.4 364.7 871.4 362.9Q871.4 360.1 870.4 358.5Q869.3 356.8 867.1 356.8ZM881 371H878.4V348.2H881ZM892.2 354.6Q895.1 354.6 896.5 355.9Q898 357.2 898 360V371H896L895.5 368.7H895.4Q894.4 370 893.2 370.7Q892 371.3 890 371.3Q887.8 371.3 886.4 370.1Q884.9 369 884.9 366.5Q884.9 364.1 886.8 362.8Q888.7 361.5 892.6 361.4L895.4 361.3V360.3Q895.4 358.3 894.5 357.6Q893.6 356.8 892 356.8Q890.8 356.8 889.6 357.1Q888.5 357.5 887.5 358L886.7 356Q887.7 355.5 889.2 355Q890.6 354.6 892.2 354.6ZM893 363.2Q890 363.3 888.8 364.2Q887.7 365 887.7 366.6Q887.7 367.9 888.5 368.5Q889.3 369.2 890.6 369.2Q892.6 369.2 894 368Q895.3 366.9 895.3 364.6V363.1ZM909.4 371.3Q907.3 371.3 905.6 370.4Q903.9 369.6 903 367.7Q902 365.9 902 363Q902 360.1 903 358.2Q904 356.4 905.7 355.5Q907.4 354.6 909.6 354.6Q910.8 354.6 911.9 354.9Q913.1 355.1 913.8 355.5L913 357.7Q912.3 357.4 911.3 357.2Q910.3 356.9 909.5 356.9Q904.8 356.9 904.8 363Q904.8 365.9 905.9 367.5Q907.1 369 909.4 369Q910.7 369 911.7 368.7Q912.7 368.5 913.5 368.1V370.4Q912.7 370.8 911.7 371.1Q910.8 371.3 909.4 371.3ZM923.6 354.6Q925.6 354.6 927.1 355.5Q928.6 356.4 929.4 358Q930.2 359.7 930.2 361.9V363.5H919.2Q919.2 366.2 920.6 367.6Q921.9 369 924.3 369Q925.8 369 927 368.8Q928.2 368.5 929.5 367.9V370.2Q928.2 370.8 927 371Q925.8 371.3 924.2 371.3Q921.9 371.3 920.1 370.4Q918.4 369.4 917.4 367.6Q916.4 365.7 916.4 363.1Q916.4 360.4 917.3 358.5Q918.2 356.7 919.8 355.6Q921.4 354.6 923.6 354.6ZM923.5 356.8Q921.6 356.8 920.5 358Q919.4 359.2 919.2 361.4H927.4Q927.4 359.3 926.5 358Q925.5 356.8 923.5 356.8ZM952.5 361.9Q952.1 360.7 951.8 359.5Q951.5 358.3 951.3 357.6H951.2Q951.1 358.3 950.8 359.5Q950.6 360.7 950.1 361.9L947.3 371H944.3L939.9 354.9H942.6L944.8 363.5Q945.1 364.8 945.4 366.1Q945.7 367.4 945.9 368.3H946Q946.1 367.8 946.3 367Q946.4 366.3 946.6 365.4Q946.8 364.6 947.1 363.9L949.9 354.9H952.8L955.5 363.9Q955.9 365 956.2 366.2Q956.5 367.4 956.6 368.2H956.8Q956.8 367.5 957.2 366.2Q957.5 364.8 957.8 363.5L960.1 354.9H962.8L958.3 371H955.2ZM968.3 354.9Q968.3 356.1 968.2 357.1H968.3Q969.1 355.9 970.5 355.3Q971.8 354.6 973.3 354.6Q976.3 354.6 977.8 356Q979.2 357.4 979.2 360.5V371H976.6V360.7Q976.6 356.8 973 356.8Q970.3 356.8 969.3 358.3Q968.3 359.9 968.3 362.7V371H965.7V348.2H968.3ZM985.6 348.9Q986.2 348.9 986.6 349.3Q987.1 349.7 987.1 350.6Q987.1 351.4 986.6 351.8Q986.2 352.2 985.6 352.2Q984.9 352.2 984.5 351.8Q984 351.4 984 350.6Q984 349.7 984.5 349.3Q984.9 348.9 985.6 348.9ZM986.9 354.9V371H984.2V354.9ZM994.6 371H992V348.2H994.6ZM1005.9 354.6Q1008 354.6 1009.5 355.5Q1011 356.4 1011.8 358Q1012.5 359.7 1012.5 361.9V363.5H1001.5Q1001.6 366.2 1002.9 367.6Q1004.3 369 1006.7 369Q1008.2 369 1009.4 368.8Q1010.6 368.5 1011.8 367.9V370.2Q1010.6 370.8 1009.4 371Q1008.2 371.3 1006.5 371.3Q1004.3 371.3 1002.5 370.4Q1000.8 369.4 999.8 367.6Q998.8 365.7 998.8 363.1Q998.8 360.4 999.7 358.5Q1000.6 356.7 1002.2 355.6Q1003.8 354.6 1005.9 354.6ZM1005.9 356.8Q1004 356.8 1002.9 358Q1001.8 359.2 1001.6 361.4H1009.8Q1009.8 359.3 1008.8 358Q1007.9 356.8 1005.9 356.8ZM1021.9 354.9H1024.7L1028.2 364.1Q1028.7 365.3 1029 366.4Q1029.4 367.5 1029.6 368.4H1029.7Q1029.9 367.7 1030.3 366.5Q1030.6 365.3 1031.1 364L1034.3 354.9H1037.2L1030.3 373.2Q1029.4 375.5 1028.1 376.9Q1026.7 378.2 1024.4 378.2Q1023.7 378.2 1023.1 378.1Q1022.6 378.1 1022.2 378V375.9Q1022.5 375.9 1023 376Q1023.5 376 1024 376Q1025.4 376 1026.2 375.3Q1027.1 374.5 1027.6 373.2L1028.4 371.1ZM1053.7 362.9Q1053.7 366.9 1051.7 369.1Q1049.7 371.3 1046.2 371.3Q1044.1 371.3 1042.4 370.3Q1040.8 369.3 1039.8 367.5Q1038.8 365.6 1038.8 362.9Q1038.8 358.9 1040.9 356.8Q1042.9 354.6 1046.3 354.6Q1048.5 354.6 1050.2 355.6Q1051.8 356.6 1052.8 358.4Q1053.7 360.3 1053.7 362.9ZM1041.6 362.9Q1041.6 365.8 1042.7 367.4Q1043.8 369.1 1046.3 369.1Q1048.7 369.1 1049.9 367.4Q1051 365.8 1051 362.9Q1051 360.1 1049.9 358.5Q1048.7 356.8 1046.3 356.8Q1043.8 356.8 1042.7 358.5Q1041.6 360.1 1041.6 362.9ZM1071.3 354.9V371H1069.2L1068.8 368.9H1068.7Q1067.9 370.1 1066.5 370.7Q1065.1 371.3 1063.6 371.3Q1060.7 371.3 1059.2 369.9Q1057.7 368.5 1057.7 365.4V354.9H1060.4V365.3Q1060.4 369.1 1064 369.1Q1066.6 369.1 1067.7 367.6Q1068.7 366.1 1068.7 363.3V354.9ZM1084 354.6Q1084.4 354.6 1084.9 354.7Q1085.5 354.7 1085.8 354.8L1085.5 357.2Q1085.1 357.1 1084.7 357.1Q1084.2 357 1083.8 357Q1082.5 357 1081.5 357.7Q1080.4 358.4 1079.7 359.6Q1079.1 360.8 1079.1 362.4V371H1076.4V354.9H1078.6L1078.9 357.9H1079Q1079.8 356.5 1081 355.6Q1082.3 354.6 1084 354.6ZM1102 369.1Q1102.6 369.1 1103.3 369Q1103.9 368.9 1104.3 368.8V370.8Q1103.9 371 1103.1 371.2Q1102.3 371.3 1101.6 371.3Q1100.3 371.3 1099.2 370.9Q1098.2 370.4 1097.5 369.3Q1096.9 368.3 1096.9 366.3V357H1094.6V355.7L1096.9 354.6L1097.9 351.2H1099.5V354.9H1104.2V357H1099.5V366.3Q1099.5 367.7 1100.2 368.4Q1100.9 369.1 1102 369.1ZM1113.7 354.6Q1115.8 354.6 1117.3 355.5Q1118.7 356.4 1119.5 358Q1120.3 359.7 1120.3 361.9V363.5H1109.3Q1109.4 366.2 1110.7 367.6Q1112 369 1114.4 369Q1116 369 1117.2 368.8Q1118.3 368.5 1119.6 367.9V370.2Q1118.4 370.8 1117.2 371Q1116 371.3 1114.3 371.3Q1112 371.3 1110.3 370.4Q1108.5 369.4 1107.6 367.6Q1106.6 365.7 1106.6 363.1Q1106.6 360.4 1107.5 358.5Q1108.4 356.7 1110 355.6Q1111.6 354.6 1113.7 354.6ZM1113.7 356.8Q1111.8 356.8 1110.7 358Q1109.6 359.2 1109.4 361.4H1117.6Q1117.5 359.3 1116.6 358Q1115.7 356.8 1113.7 356.8ZM1128.2 362.8 1122.7 354.9H1125.7L1129.8 361L1133.9 354.9H1136.9L1131.3 362.8L1137.2 371H1134.2L1129.8 364.6L1125.4 371H1122.4ZM1145.7 369.1Q1146.3 369.1 1146.9 369Q1147.5 368.9 1147.9 368.8V370.8Q1147.5 371 1146.7 371.2Q1145.9 371.3 1145.2 371.3Q1144 371.3 1142.9 370.9Q1141.8 370.4 1141.2 369.3Q1140.5 368.3 1140.5 366.3V357H1138.2V355.7L1140.5 354.6L1141.6 351.2H1143.1V354.9H1147.8V357H1143.1V366.3Q1143.1 367.7 1143.8 368.4Q1144.6 369.1 1145.7 369.1ZM1169.4 366.6Q1169.4 368.9 1167.7 370.1Q1165.9 371.3 1163 371.3Q1161.3 371.3 1160.1 371Q1158.9 370.8 1157.9 370.3V367.9Q1158.9 368.4 1160.3 368.8Q1161.6 369.2 1163 369.2Q1165.1 369.2 1166 368.5Q1166.9 367.9 1166.9 366.8Q1166.9 366.2 1166.5 365.7Q1166.2 365.2 1165.3 364.8Q1164.5 364.3 1162.9 363.7Q1161.3 363.1 1160.2 362.5Q1159.1 361.9 1158.5 361Q1157.9 360.2 1157.9 358.9Q1157.9 356.8 1159.6 355.7Q1161.2 354.6 1163.9 354.6Q1165.4 354.6 1166.7 354.9Q1168 355.2 1169.1 355.7L1168.2 357.8Q1167.2 357.4 1166 357.1Q1164.9 356.8 1163.8 356.8Q1162.1 356.8 1161.3 357.3Q1160.4 357.8 1160.4 358.7Q1160.4 359.4 1160.8 359.8Q1161.2 360.3 1162.1 360.8Q1163 361.2 1164.6 361.8Q1166.1 362.4 1167.2 363Q1168.3 363.6 1168.8 364.4Q1169.4 365.3 1169.4 366.6ZM1179.8 371.3Q1177.6 371.3 1176 370.4Q1174.3 369.6 1173.4 367.7Q1172.4 365.9 1172.4 363Q1172.4 360.1 1173.4 358.2Q1174.4 356.4 1176.1 355.5Q1177.8 354.6 1179.9 354.6Q1181.2 354.6 1182.3 354.9Q1183.4 355.1 1184.2 355.5L1183.4 357.7Q1182.6 357.4 1181.7 357.2Q1180.7 356.9 1179.9 356.9Q1175.1 356.9 1175.1 363Q1175.1 365.9 1176.3 367.5Q1177.4 369 1179.7 369Q1181 369 1182.1 368.7Q1183.1 368.5 1183.9 368.1V370.4Q1183.1 370.8 1182.1 371.1Q1181.1 371.3 1179.8 371.3ZM1195.2 354.6Q1195.7 354.6 1196.2 354.7Q1196.7 354.7 1197.1 354.8L1196.8 357.2Q1196.4 357.1 1195.9 357.1Q1195.5 357 1195 357Q1193.8 357 1192.7 357.7Q1191.6 358.4 1191 359.6Q1190.4 360.8 1190.4 362.4V371H1187.7V354.9H1189.9L1190.2 357.9H1190.3Q1191.1 356.5 1192.3 355.6Q1193.5 354.6 1195.2 354.6ZM1214.1 362.9Q1214.1 366.9 1212.1 369.1Q1210 371.3 1206.6 371.3Q1204.5 371.3 1202.8 370.3Q1201.1 369.3 1200.2 367.5Q1199.2 365.6 1199.2 362.9Q1199.2 358.9 1201.2 356.8Q1203.2 354.6 1206.7 354.6Q1208.9 354.6 1210.5 355.6Q1212.2 356.6 1213.1 358.4Q1214.1 360.3 1214.1 362.9ZM1201.9 362.9Q1201.9 365.8 1203.1 367.4Q1204.2 369.1 1206.7 369.1Q1209.1 369.1 1210.2 367.4Q1211.4 365.8 1211.4 362.9Q1211.4 360.1 1210.2 358.5Q1209.1 356.8 1206.6 356.8Q1204.2 356.8 1203 358.5Q1201.9 360.1 1201.9 362.9ZM1220.9 371H1218.3V348.2H1220.9ZM1228.7 371H1226V348.2H1228.7ZM1244.2 366.6Q1244.2 368.9 1242.5 370.1Q1240.7 371.3 1237.8 371.3Q1236.1 371.3 1234.9 371Q1233.7 370.8 1232.8 370.3V367.9Q1233.7 368.4 1235.1 368.8Q1236.5 369.2 1237.9 369.2Q1239.9 369.2 1240.8 368.5Q1241.7 367.9 1241.7 366.8Q1241.7 366.2 1241.3 365.7Q1241 365.2 1240.2 364.8Q1239.3 364.3 1237.7 363.7Q1236.2 363.1 1235 362.5Q1233.9 361.9 1233.3 361Q1232.7 360.2 1232.7 358.9Q1232.7 356.8 1234.4 355.7Q1236.1 354.6 1238.8 354.6Q1240.2 354.6 1241.5 354.9Q1242.8 355.2 1243.9 355.7L1243 357.8Q1242 357.4 1240.9 357.1Q1239.8 356.8 1238.6 356.8Q1237 356.8 1236.1 357.3Q1235.3 357.8 1235.3 358.7Q1235.3 359.4 1235.6 359.8Q1236 360.3 1237 360.8Q1237.9 361.2 1239.4 361.8Q1240.9 362.4 1242 363Q1243.1 363.6 1243.7 364.4Q1244.2 365.3 1244.2 366.6ZM1262 354.6Q1265 354.6 1266.4 355.9Q1267.8 357.2 1267.8 360V371H1265.9L1265.4 368.7H1265.2Q1264.2 370 1263 370.7Q1261.9 371.3 1259.8 371.3Q1257.6 371.3 1256.2 370.1Q1254.8 369 1254.8 366.5Q1254.8 364.1 1256.7 362.8Q1258.5 361.5 1262.5 361.4L1265.2 361.3V360.3Q1265.2 358.3 1264.3 357.6Q1263.5 356.8 1261.9 356.8Q1260.6 356.8 1259.5 357.1Q1258.3 357.5 1257.3 358L1256.5 356Q1257.6 355.5 1259 355Q1260.5 354.6 1262 354.6ZM1262.8 363.2Q1259.8 363.3 1258.7 364.2Q1257.5 365 1257.5 366.6Q1257.5 367.9 1258.3 368.5Q1259.1 369.2 1260.4 369.2Q1262.5 369.2 1263.8 368Q1265.2 366.9 1265.2 364.6V363.1ZM1279.2 371.3Q1277.1 371.3 1275.4 370.4Q1273.8 369.6 1272.8 367.7Q1271.9 365.9 1271.9 363Q1271.9 360.1 1272.9 358.2Q1273.9 356.4 1275.5 355.5Q1277.2 354.6 1279.4 354.6Q1280.6 354.6 1281.8 354.9Q1282.9 355.1 1283.6 355.5L1282.8 357.7Q1282.1 357.4 1281.1 357.2Q1280.2 356.9 1279.3 356.9Q1274.6 356.9 1274.6 363Q1274.6 365.9 1275.8 367.5Q1276.9 369 1279.2 369Q1280.5 369 1281.5 368.7Q1282.5 368.5 1283.4 368.1V370.4Q1282.6 370.8 1281.6 371.1Q1280.6 371.3 1279.2 371.3ZM1294.7 354.6Q1295.1 354.6 1295.7 354.7Q1296.2 354.7 1296.6 354.8L1296.2 357.2Q1295.9 357.1 1295.4 357.1Q1294.9 357 1294.5 357Q1293.3 357 1292.2 357.7Q1291.1 358.4 1290.5 359.6Q1289.8 360.8 1289.8 362.4V371H1287.2V354.9H1289.3L1289.6 357.9H1289.8Q1290.5 356.5 1291.8 355.6Q1293 354.6 1294.7 354.6ZM1313.6 362.9Q1313.6 366.9 1311.5 369.1Q1309.5 371.3 1306.1 371.3Q1303.9 371.3 1302.3 370.3Q1300.6 369.3 1299.6 367.5Q1298.7 365.6 1298.7 362.9Q1298.7 358.9 1300.7 356.8Q1302.7 354.6 1306.1 354.6Q1308.3 354.6 1310 355.6Q1311.7 356.6 1312.6 358.4Q1313.6 360.3 1313.6 362.9ZM1301.4 362.9Q1301.4 365.8 1302.5 367.4Q1303.7 369.1 1306.1 369.1Q1308.6 369.1 1309.7 367.4Q1310.8 365.8 1310.8 362.9Q1310.8 360.1 1309.7 358.5Q1308.6 356.8 1306.1 356.8Q1303.6 356.8 1302.5 358.5Q1301.4 360.1 1301.4 362.9ZM1328.2 366.6Q1328.2 368.9 1326.5 370.1Q1324.7 371.3 1321.8 371.3Q1320.1 371.3 1318.9 371Q1317.7 370.8 1316.7 370.3V367.9Q1317.7 368.4 1319.1 368.8Q1320.4 369.2 1321.8 369.2Q1323.9 369.2 1324.8 368.5Q1325.7 367.9 1325.7 366.8Q1325.7 366.2 1325.3 365.7Q1325 365.2 1324.1 364.8Q1323.3 364.3 1321.7 363.7Q1320.1 363.1 1319 362.5Q1317.9 361.9 1317.3 361Q1316.7 360.2 1316.7 358.9Q1316.7 356.8 1318.4 355.7Q1320 354.6 1322.7 354.6Q1324.2 354.6 1325.5 354.9Q1326.8 355.2 1327.9 355.7L1327 357.8Q1326 357.4 1324.8 357.1Q1323.7 356.8 1322.6 356.8Q1320.9 356.8 1320.1 357.3Q1319.2 357.8 1319.2 358.7Q1319.2 359.4 1319.6 359.8Q1320 360.3 1320.9 360.8Q1321.8 361.2 1323.4 361.8Q1324.9 362.4 1326 363Q1327.1 363.6 1327.6 364.4Q1328.2 365.3 1328.2 366.6ZM1342.6 366.6Q1342.6 368.9 1340.8 370.1Q1339.1 371.3 1336.2 371.3Q1334.5 371.3 1333.3 371Q1332.1 370.8 1331.1 370.3V367.9Q1332.1 368.4 1333.4 368.8Q1334.8 369.2 1336.2 369.2Q1338.2 369.2 1339.1 368.5Q1340 367.9 1340 366.8Q1340 366.2 1339.7 365.7Q1339.4 365.2 1338.5 364.8Q1337.7 364.3 1336.1 363.7Q1334.5 363.1 1333.4 362.5Q1332.3 361.9 1331.7 361Q1331.1 360.2 1331.1 358.9Q1331.1 356.8 1332.8 355.7Q1334.4 354.6 1337.1 354.6Q1338.6 354.6 1339.9 354.9Q1341.1 355.2 1342.3 355.7L1341.4 357.8Q1340.3 357.4 1339.2 357.1Q1338.1 356.8 1336.9 356.8Q1335.3 356.8 1334.5 357.3Q1333.6 357.8 1333.6 358.7Q1333.6 359.4 1334 359.8Q1334.4 360.3 1335.3 360.8Q1336.2 361.2 1337.8 361.8Q1339.3 362.4 1340.4 363Q1341.4 363.6 1342 364.4Q1342.6 365.3 1342.6 366.6ZM1359.7 369.1Q1360.3 369.1 1360.9 369Q1361.5 368.9 1361.9 368.8V370.8Q1361.5 371 1360.7 371.2Q1359.9 371.3 1359.2 371.3Q1358 371.3 1356.9 370.9Q1355.8 370.4 1355.2 369.3Q1354.5 368.3 1354.5 366.3V357H1352.2V355.7L1354.5 354.6L1355.6 351.2H1357.1V354.9H1361.8V357H1357.1V366.3Q1357.1 367.7 1357.8 368.4Q1358.6 369.1 1359.7 369.1ZM1367.8 354.9Q1367.8 356.1 1367.6 357.1H1367.8Q1368.6 355.9 1369.9 355.3Q1371.3 354.6 1372.8 354.6Q1375.8 354.6 1377.2 356Q1378.7 357.4 1378.7 360.5V371H1376.1V360.7Q1376.1 356.8 1372.5 356.8Q1369.8 356.8 1368.8 358.3Q1367.8 359.9 1367.8 362.7V371H1365.1V348.2H1367.8ZM1389.9 354.6Q1392 354.6 1393.4 355.5Q1394.9 356.4 1395.7 358Q1396.5 359.7 1396.5 361.9V363.5H1385.5Q1385.6 366.2 1386.9 367.6Q1388.2 369 1390.6 369Q1392.2 369 1393.4 368.8Q1394.5 368.5 1395.8 367.9V370.2Q1394.6 370.8 1393.4 371Q1392.2 371.3 1390.5 371.3Q1388.2 371.3 1386.5 370.4Q1384.7 369.4 1383.8 367.6Q1382.8 365.7 1382.8 363.1Q1382.8 360.4 1383.7 358.5Q1384.5 356.7 1386.2 355.6Q1387.8 354.6 1389.9 354.6ZM1389.9 356.8Q1388 356.8 1386.9 358Q1385.8 359.2 1385.6 361.4H1393.8Q1393.7 359.3 1392.8 358Q1391.9 356.8 1389.9 356.8ZM1418.3 354.6Q1421 354.6 1422.3 356Q1423.7 357.4 1423.7 360.5V371H1421.1V360.6Q1421.1 356.8 1417.8 356.8Q1415.5 356.8 1414.5 358.2Q1413.5 359.5 1413.5 362.1V371H1410.8V360.6Q1410.8 356.8 1407.5 356.8Q1405.1 356.8 1404.2 358.3Q1403.2 359.8 1403.2 362.7V371H1400.6V354.9H1402.7L1403.1 357.1H1403.3Q1404 355.8 1405.3 355.2Q1406.6 354.6 1408 354.6Q1411.8 354.6 1412.9 357.3H1413.1Q1413.9 355.9 1415.3 355.3Q1416.7 354.6 1418.3 354.6ZM1428.3 369.4Q1428.3 368.3 1428.8 367.8Q1429.4 367.4 1430.1 367.4Q1430.9 367.4 1431.4 367.8Q1432 368.3 1432 369.4Q1432 370.5 1431.4 370.9Q1430.9 371.4 1430.1 371.4Q1429.4 371.4 1428.8 370.9Q1428.3 370.5 1428.3 369.4Z"/>
  <!-- Scroll hint below the text: mouse wheel with an arrow rolling down and text as paths (Noto Sans Regular). -->
  <!-- Wheel above its text, both centred. -->
  <g>
    <g transform="translate(540 1411)">
      <rect x="-38" y="-75" width="76" height="150" rx="38" fill="#0f172a" stroke="#475569" stroke-width="4"/>
      <g clip-path="url(#wheel)">
        <path class="wheel-arrow" fill="none" stroke="#38bdf8" stroke-width="8" stroke-linecap="round" stroke-linejoin="round" d="M0 -37V37M-22 15L0 37L22 15"/>
      </g>
    </g>
    <path transform="translate(-277.5 782.6)" fill="#cbd5e1" d="M498 775.3Q498 780.6 494.1 783.6Q490.3 786.6 483.7 786.6Q480.3 786.6 477.5 786.1Q474.6 785.6 472.7 784.7V779.8Q474.7 780.7 477.7 781.5Q480.7 782.2 483.9 782.2Q488.4 782.2 490.7 780.5Q492.9 778.7 492.9 775.8Q492.9 773.8 492.1 772.4Q491.3 771.1 489.2 770Q487.2 768.8 483.5 767.5Q478.4 765.7 475.8 763Q473.2 760.3 473.2 755.6Q473.2 752.5 474.9 750.2Q476.5 747.9 479.4 746.7Q482.3 745.5 486 745.5Q489.3 745.5 492.1 746.1Q494.8 746.7 497 747.7L495.5 752Q493.4 751.1 491 750.5Q488.5 749.9 485.9 749.9Q482.1 749.9 480.2 751.5Q478.3 753.1 478.3 755.7Q478.3 757.7 479.2 759.1Q480 760.4 481.9 761.5Q483.8 762.5 487.1 763.8Q490.6 765.1 493 766.5Q495.5 768 496.7 770.1Q498 772.2 498 775.3ZM517.4 786.6Q513.4 786.6 510.3 784.9Q507.2 783.3 505.5 779.9Q503.7 776.5 503.7 771.2Q503.7 765.6 505.5 762.1Q507.4 758.7 510.6 757Q513.7 755.4 517.8 755.4Q520.1 755.4 522.2 755.9Q524.3 756.4 525.7 757L524.1 761.1Q522.8 760.6 521 760.2Q519.2 759.7 517.6 759.7Q508.8 759.7 508.8 771.1Q508.8 776.5 511 779.4Q513.1 782.3 517.4 782.3Q519.8 782.3 521.7 781.8Q523.6 781.3 525.1 780.6V784.9Q523.6 785.7 521.8 786.1Q520 786.6 517.4 786.6ZM546.3 755.4Q547.1 755.4 548.1 755.5Q549.1 755.6 549.8 755.8L549.2 760.3Q548.4 760.1 547.6 760Q546.7 759.9 545.9 759.9Q543.6 759.9 541.6 761.2Q539.6 762.4 538.4 764.7Q537.2 767 537.2 770V786H532.3V756H536.3L536.9 761.5H537.1Q538.5 759 540.8 757.2Q543.1 755.4 546.3 755.4ZM581.5 770.9Q581.5 778.4 577.7 782.5Q573.9 786.6 567.5 786.6Q563.5 786.6 560.4 784.7Q557.3 782.9 555.5 779.4Q553.7 775.9 553.7 770.9Q553.7 763.5 557.5 759.5Q561.2 755.4 567.7 755.4Q571.7 755.4 574.8 757.2Q578 759.1 579.7 762.5Q581.5 766 581.5 770.9ZM558.8 770.9Q558.8 776.3 560.9 779.4Q563 782.5 567.6 782.5Q572.1 782.5 574.3 779.4Q576.4 776.3 576.4 770.9Q576.4 765.6 574.3 762.6Q572.1 759.6 567.5 759.6Q562.9 759.6 560.9 762.6Q558.8 765.6 558.8 770.9ZM594.2 786H589.3V743.4H594.2ZM608.6 786H603.7V743.4H608.6ZM644.1 755.5Q649.6 755.5 652.2 757.9Q654.8 760.3 654.8 765.6V786H651.3L650.3 781.7H650.1Q648.1 784.2 646 785.4Q643.8 786.6 640 786.6Q635.9 786.6 633.2 784.4Q630.5 782.2 630.5 777.7Q630.5 773.2 634.1 770.7Q637.6 768.3 644.9 768.1L650 767.9V766.1Q650 762.4 648.4 760.9Q646.8 759.5 643.8 759.5Q641.5 759.5 639.3 760.2Q637.2 760.9 635.4 761.8L633.8 758.1Q635.8 757 638.5 756.2Q641.2 755.5 644.1 755.5ZM645.5 771.5Q639.9 771.7 637.8 773.3Q635.6 774.9 635.6 777.7Q635.6 780.2 637.2 781.4Q638.7 782.6 641.1 782.6Q644.9 782.6 647.5 780.5Q650 778.4 650 774V771.3ZM678.6 755.4Q684 755.4 686.7 758Q689.5 760.6 689.5 766.5V786H684.6V766.8Q684.6 759.6 677.9 759.6Q672.9 759.6 671 762.4Q669.1 765.2 669.1 770.4V786H664.1V756H668.1L668.8 760.1H669.1Q670.6 757.7 673.2 756.6Q675.7 755.4 678.6 755.4ZM709.4 786.6Q703.8 786.6 700.4 782.7Q697.1 778.8 697.1 771Q697.1 763.3 700.5 759.4Q703.8 755.4 709.4 755.4Q712.9 755.4 715.1 756.7Q717.3 758 718.7 759.8H719.1Q719 759.1 718.9 757.7Q718.7 756.3 718.7 755.4V743.4H723.7V786H719.7L719 782H718.7Q717.4 783.9 715.2 785.2Q712.9 786.6 709.4 786.6ZM710.2 782.5Q714.9 782.5 716.9 779.9Q718.8 777.3 718.8 772V771.1Q718.8 765.5 716.9 762.5Q715.1 759.5 710.1 759.5Q706.1 759.5 704.2 762.7Q702.2 765.8 702.2 771.2Q702.2 776.5 704.2 779.5Q706.1 782.5 710.2 782.5ZM761.6 759.8H754V786H749.1V759.8H743.8V757.5L749.1 755.8V754.1Q749.1 748.3 751.7 745.7Q754.2 743.2 758.8 743.2Q760.6 743.2 762.1 743.5Q763.6 743.8 764.7 744.2L763.4 748Q762.5 747.8 761.3 747.5Q760.1 747.2 758.9 747.2Q756.4 747.2 755.2 748.8Q754 750.5 754 754V756H761.6ZM793.1 770.9Q793.1 778.4 789.3 782.5Q785.5 786.6 779.1 786.6Q775.1 786.6 772 784.7Q768.9 782.9 767.1 779.4Q765.3 775.9 765.3 770.9Q765.3 763.5 769.1 759.5Q772.8 755.4 779.3 755.4Q783.4 755.4 786.5 757.2Q789.6 759.1 791.3 762.5Q793.1 766 793.1 770.9ZM770.4 770.9Q770.4 776.3 772.5 779.4Q774.6 782.5 779.2 782.5Q783.8 782.5 785.9 779.4Q788 776.3 788 770.9Q788 765.6 785.9 762.6Q783.8 759.6 779.2 759.6Q774.6 759.6 772.5 762.6Q770.4 765.6 770.4 770.9ZM805.8 786H800.9V743.4H805.8ZM820.3 786H815.3V743.4H820.3ZM855.9 770.9Q855.9 778.4 852.1 782.5Q848.3 786.6 841.9 786.6Q837.9 786.6 834.8 784.7Q831.7 782.9 829.9 779.4Q828.1 775.9 828.1 770.9Q828.1 763.5 831.9 759.5Q835.6 755.4 842.1 755.4Q846.1 755.4 849.2 757.2Q852.4 759.1 854.1 762.5Q855.9 766 855.9 770.9ZM833.2 770.9Q833.2 776.3 835.3 779.4Q837.4 782.5 842 782.5Q846.5 782.5 848.7 779.4Q850.8 776.3 850.8 770.9Q850.8 765.6 848.7 762.6Q846.5 759.6 841.9 759.6Q837.3 759.6 835.3 762.6Q833.2 765.6 833.2 770.9ZM883 769Q882.3 766.7 881.8 764.5Q881.3 762.3 881 761.1H880.7Q880.5 762.3 880 764.5Q879.5 766.7 878.7 769.1L873.4 785.9H867.8L859.5 755.9H864.6L868.8 771.9Q869.4 774.4 869.9 776.8Q870.5 779.3 870.7 780.9H870.9Q871.2 780 871.5 778.6Q871.8 777.2 872.2 775.6Q872.6 774.1 873 772.8L878.3 755.9H883.7L888.8 772.8Q889.4 774.7 890 777Q890.6 779.2 890.8 780.8H891.1Q891.2 779.4 891.8 777Q892.4 774.5 893.1 771.9L897.3 755.9H902.3L894 785.9H888.2ZM932.3 782.5Q933.4 782.5 934.6 782.3Q935.7 782.1 936.5 781.9V785.7Q935.7 786.1 934.2 786.3Q932.8 786.6 931.4 786.6Q929.1 786.6 927.1 785.7Q925.1 784.9 923.9 782.9Q922.6 780.9 922.6 777.3V759.8H918.4V757.4L922.7 755.5L924.7 749.1H927.6V756H936.2V759.8H927.6V777.2Q927.6 779.9 928.9 781.2Q930.2 782.5 932.3 782.5ZM947.4 755.9Q947.4 758.2 947.1 760.1H947.4Q948.9 757.8 951.4 756.7Q953.9 755.5 956.8 755.5Q962.3 755.5 965 758.1Q967.8 760.7 967.8 766.5V786H962.9V766.8Q962.9 759.6 956.2 759.6Q951.1 759.6 949.3 762.4Q947.4 765.2 947.4 770.5V786H942.5V743.4H947.4ZM988.7 755.4Q992.5 755.4 995.3 757.1Q998.1 758.8 999.6 761.8Q1001 764.9 1001 769V771.9H980.5Q980.6 777 983.1 779.7Q985.6 782.4 990.1 782.4Q992.9 782.4 995.1 781.8Q997.3 781.3 999.7 780.3V784.6Q997.4 785.6 995.2 786.1Q992.9 786.6 989.8 786.6Q985.6 786.6 982.3 784.8Q979 783.1 977.2 779.6Q975.4 776.2 975.4 771.2Q975.4 766.3 977 762.8Q978.7 759.2 981.7 757.3Q984.7 755.4 988.7 755.4ZM988.6 759.5Q985.1 759.5 983 761.7Q981 764 980.6 768H995.9Q995.8 764.2 994.1 761.8Q992.4 759.5 988.6 759.5ZM1042.8 777.7Q1042.8 782.1 1039.5 784.3Q1036.3 786.6 1030.8 786.6Q1027.6 786.6 1025.4 786.1Q1023.1 785.6 1021.4 784.7V780.2Q1023.2 781.1 1025.7 781.8Q1028.3 782.6 1030.9 782.6Q1034.6 782.6 1036.3 781.4Q1038 780.2 1038 778.2Q1038 777 1037.4 776.1Q1036.8 775.2 1035.2 774.4Q1033.6 773.5 1030.6 772.3Q1027.7 771.2 1025.6 770.1Q1023.5 769 1022.4 767.4Q1021.3 765.8 1021.3 763.4Q1021.3 759.6 1024.4 757.5Q1027.5 755.4 1032.6 755.4Q1035.3 755.4 1037.7 756Q1040.1 756.5 1042.1 757.4L1040.5 761.4Q1038.6 760.6 1036.5 760Q1034.4 759.5 1032.2 759.5Q1029.2 759.5 1027.6 760.4Q1026 761.4 1026 763.1Q1026 764.3 1026.7 765.2Q1027.5 766.1 1029.2 766.9Q1030.9 767.7 1033.7 768.8Q1036.6 769.9 1038.6 771Q1040.6 772.1 1041.7 773.7Q1042.8 775.3 1042.8 777.7ZM1060.1 782.5Q1061.2 782.5 1062.4 782.3Q1063.5 782.1 1064.3 781.9V785.7Q1063.5 786.1 1062 786.3Q1060.6 786.6 1059.2 786.6Q1056.9 786.6 1054.9 785.7Q1052.9 784.9 1051.7 782.9Q1050.4 780.9 1050.4 777.3V759.8H1046.2V757.4L1050.5 755.5L1052.4 749.1H1055.4V756H1064V759.8H1055.4V777.2Q1055.4 779.9 1056.7 781.2Q1058 782.5 1060.1 782.5ZM1096.3 770.9Q1096.3 778.4 1092.6 782.5Q1088.8 786.6 1082.3 786.6Q1078.4 786.6 1075.3 784.7Q1072.2 782.9 1070.4 779.4Q1068.6 775.9 1068.6 770.9Q1068.6 763.5 1072.3 759.5Q1076.1 755.4 1082.5 755.4Q1086.6 755.4 1089.7 757.2Q1092.8 759.1 1094.6 762.5Q1096.3 766 1096.3 770.9ZM1073.7 770.9Q1073.7 776.3 1075.8 779.4Q1077.9 782.5 1082.5 782.5Q1087 782.5 1089.1 779.4Q1091.3 776.3 1091.3 770.9Q1091.3 765.6 1089.1 762.6Q1087 759.6 1082.4 759.6Q1077.8 759.6 1075.7 762.6Q1073.7 765.6 1073.7 770.9ZM1118.1 755.4Q1119 755.4 1120 755.5Q1120.9 755.6 1121.7 755.8L1121 760.3Q1120.3 760.1 1119.4 760Q1118.6 759.9 1117.8 759.9Q1115.5 759.9 1113.5 761.2Q1111.5 762.4 1110.3 764.7Q1109.1 767 1109.1 770V786H1104.1V756H1108.2L1108.7 761.5H1108.9Q1110.4 759 1112.7 757.2Q1115 755.4 1118.1 755.4ZM1122.6 756H1127.8L1134.3 773.1Q1135.2 775.3 1135.8 777.3Q1136.5 779.4 1136.8 781.2H1137.1Q1137.4 779.8 1138.1 777.6Q1138.9 775.3 1139.6 773L1145.7 756H1151.1L1138.1 790.1Q1136.6 794.4 1134.1 796.9Q1131.6 799.4 1127.2 799.4Q1125.9 799.4 1124.9 799.3Q1123.8 799.2 1123.1 799V795.1Q1123.7 795.2 1124.6 795.3Q1125.5 795.4 1126.4 795.4Q1129 795.4 1130.6 794Q1132.2 792.5 1133.1 790.1L1134.7 786.1ZM1160.2 774.7H1157L1155.6 746H1161.6ZM1155.1 783Q1155.1 780.9 1156.1 780.1Q1157.1 779.2 1158.6 779.2Q1160 779.2 1161 780.1Q1162 780.9 1162 783Q1162 785 1161 785.9Q1160 786.8 1158.6 786.8Q1157.1 786.8 1156.1 785.9Q1155.1 785 1155.1 783Z"/>
  </g>
</svg>
